<svg height="512" viewBox="0 0 60 60" width="512" xmlns="http://www.w3.org/2000/svg"><g id="icon"><path d="m37.866 54.749a2.687 2.687 0 0 1 -2.607-2.026l-3.373-13.275h-3.771l-3.374 13.275a2.688 2.688 0 0 1 -5.217-1.3l3.676-14.984-.562-12.067-7.116-10.032a2.449 2.449 0 0 1 3.87-2.995l7.537 9.155h6.142l7.529-9.148a2.449 2.449 0 0 1 3.876 2.988l-7.109 10.032-.562 12.067 3.671 14.983a2.7 2.7 0 0 1 -1.8 3.2 2.658 2.658 0 0 1 -.81.127zm-10.334-16.8h4.937a.75.75 0 0 1 .727.565l3.517 13.841a1.188 1.188 0 0 0 1.51.84 1.191 1.191 0 0 0 .8-1.415l-3.7-15.088a.734.734 0 0 1 -.02-.214l.577-12.395a.751.751 0 0 1 .137-.4l7.238-10.21a.949.949 0 0 0 -1.5-1.161l-7.755 9.41a.752.752 0 0 1 -.579.274h-6.85a.752.752 0 0 1 -.571-.274l-7.76-9.417a.949.949 0 0 0 -1.494 1.168l7.237 10.21a.742.742 0 0 1 .137.4l.58 12.394a.771.771 0 0 1 -.021.214l-3.7 15.088a1.188 1.188 0 0 0 1.733 1.32 1.175 1.175 0 0 0 .573-.745l3.515-13.841a.75.75 0 0 1 .732-.565z"/><path d="m48.506 11.974h-37.013a.75.75 0 1 1 0-1.5h37.013a.75.75 0 0 1 0 1.5z"/><path d="m10.546 17.2h-2.481a1.7 1.7 0 0 1 -1.7-1.7v-8.552a1.7 1.7 0 0 1 1.7-1.7h2.481a1.7 1.7 0 0 1 1.7 1.7v8.552a1.7 1.7 0 0 1 -1.7 1.7zm-2.481-10.45a.2.2 0 0 0 -.2.2v8.55a.2.2 0 0 0 .2.2h2.481a.2.2 0 0 0 .2-.2v-8.552a.2.2 0 0 0 -.2-.2z"/><path d="m51.935 17.2h-2.481a1.7 1.7 0 0 1 -1.7-1.7v-8.552a1.7 1.7 0 0 1 1.7-1.7h2.481a1.7 1.7 0 0 1 1.7 1.7v8.552a1.7 1.7 0 0 1 -1.7 1.7zm-2.481-10.45a.2.2 0 0 0 -.2.2v8.55a.2.2 0 0 0 .2.2h2.481a.2.2 0 0 0 .2-.2v-8.552a.2.2 0 0 0 -.2-.2z"/><path d="m30 19.589a4.558 4.558 0 1 1 4.557-4.557 4.562 4.562 0 0 1 -4.557 4.557zm0-7.615a3.058 3.058 0 1 0 3.057 3.058 3.061 3.061 0 0 0 -3.057-3.058z"/></g></svg>